<svg width="77" height="50" viewBox="0 0 77 50" fill="none" xmlns="http://www.w3.org/2000/svg">
<rect x="0.629883" width="76" height="50" rx="22" fill="black"/>
<path d="M21.408 24.62C21.408 22.208 23.004 20.12 25.752 20.12C28.176 20.12 29.544 21.524 29.94 23.48L28.5 23.84C28.248 22.448 27.42 21.476 25.74 21.476C23.892 21.476 22.872 22.916 22.872 24.62C22.872 26.336 23.676 27.764 25.716 27.764C27.432 27.764 28.308 26.66 28.512 25.244L29.964 25.52C29.604 27.572 28.224 29.12 25.716 29.12C22.668 29.12 21.408 27.068 21.408 24.62ZM32.5232 27.572C32.5232 26.888 32.8232 26.456 33.3512 26.132C33.9392 25.748 34.7912 25.592 35.9672 25.328C36.8792 25.136 37.4192 24.944 37.4072 24.452C37.4072 23.852 37.0112 23.348 35.9192 23.348C34.8872 23.348 34.2512 23.828 33.8672 24.752L32.5712 24.164C33.2432 22.856 34.3952 22.148 35.9672 22.148C37.7672 22.148 38.7872 23 38.7872 24.62V27.176C38.7872 27.728 38.9552 27.884 39.3392 27.884C39.5192 27.884 39.6512 27.848 39.7592 27.8V28.916C39.5792 29.024 39.2072 29.108 38.8232 29.108C37.8512 29.108 37.3712 28.664 37.3952 27.488L37.4072 26.804C36.9512 28.136 35.8472 29.144 34.5152 29.144C33.1832 29.144 32.5232 28.496 32.5232 27.572ZM37.4312 25.784V25.1C37.2152 25.436 36.7112 25.604 35.8832 25.772C34.7072 26.024 33.9872 26.276 33.9872 27.068C33.9872 27.62 34.4192 27.98 35.2712 27.98C36.3992 27.98 37.2752 27.188 37.4312 25.784ZM45.9193 22.184C46.4233 22.184 46.8673 22.316 47.1793 22.52L46.6993 23.936C46.3153 23.648 45.9433 23.516 45.4153 23.516C44.6233 23.516 44.0233 24.068 43.9753 25.316V29H42.5233V22.28H43.9633V24.284C44.2033 22.868 44.7793 22.184 45.9193 22.184ZM54.2746 27.62V28.892C53.9506 29.024 53.5666 29.12 53.1466 29.12C51.6946 29.12 51.1306 28.412 51.1306 26.924V23.564H49.7146V22.28H51.1426V20.504L52.4986 19.7V22.28H54.2746V23.552H52.4986V26.696C52.4986 27.512 52.8226 27.812 53.4226 27.812C53.7586 27.812 53.9866 27.752 54.2746 27.62Z" fill="white"/>
</svg>
