<svg width="51" height="50" viewBox="0 0 51 50" fill="none" xmlns="http://www.w3.org/2000/svg">
<circle cx="25.6666" cy="25" r="25" fill="black"/>
<circle cx="25.6666" cy="25" r="18.5185" fill="white"/>
<path d="M19.5829 30.8256C20.515 32 22.25 32 25.7198 32H26.2802C29.75 32 31.485 32 32.4171 30.8256M19.5829 30.8256C18.6507 29.6511 18.9704 27.8681 19.6099 24.3021C20.0646 21.7662 20.292 20.4982 21.1552 19.7491M19.5829 30.8256C19.5829 30.8256 19.5829 30.8256 19.5829 30.8256ZM32.4171 30.8256C33.3493 29.6511 33.0296 27.8681 32.3901 24.3021C31.9354 21.7662 31.708 20.4982 30.8448 19.7491M32.4171 30.8256C32.4171 30.8256 32.4171 30.8256 32.4171 30.8256ZM30.8448 19.7491C29.9816 19 28.7478 19 26.2802 19H25.7198C23.2522 19 22.0184 19 21.1552 19.7491M30.8448 19.7491C30.8448 19.7491 30.8448 19.7491 30.8448 19.7491ZM21.1552 19.7491C21.1552 19.7491 21.1552 19.7491 21.1552 19.7491Z" stroke="black" stroke-width="1.5"/>
<path d="M24 22C24.2911 23.1652 25.0766 24 26 24C26.9234 24 27.7089 23.1652 28 22" stroke="black" stroke-width="1.5" stroke-linecap="round"/>
</svg>
